<?xml version="1.0" encoding="UTF-8" standalone="no"?>
<!-- Created with Inkscape (http://www.inkscape.org/) -->

<svg
   xmlns:dc="http://purl.org/dc/elements/1.1/"
   xmlns:cc="http://creativecommons.org/ns#"
   xmlns:rdf="http://www.w3.org/1999/02/22-rdf-syntax-ns#"
   xmlns:svg="http://www.w3.org/2000/svg"
   xmlns="http://www.w3.org/2000/svg"
   xmlns:xlink="http://www.w3.org/1999/xlink"
   xmlns:sodipodi="http://sodipodi.sourceforge.net/DTD/sodipodi-0.dtd"
   xmlns:inkscape="http://www.inkscape.org/namespaces/inkscape"
   width="312.1066"
   height="312.10007"
   id="svg3176"
   version="1.1"
   inkscape:version="0.48.4 r9939"
   sodipodi:docname="spotify.svg">
  <defs
     id="defs3178">
    <radialGradient
       inkscape:collect="always"
       xlink:href="#linearGradient3110"
       id="radialGradient3116"
       cx="218.80334"
       cy="2060.4209"
       fx="218.80334"
       fy="2060.4209"
       r="740.5"
       gradientTransform="matrix(0,1.6152668,-1.3457152,0,3206.476,1472.5864)"
       gradientUnits="userSpaceOnUse" />
    <linearGradient
       inkscape:collect="always"
       id="linearGradient3110">
      <stop
         style="stop-color:#a9d03f;stop-opacity:1"
         offset="0"
         id="stop3112" />
      <stop
         id="stop3122"
         offset="0.07105015"
         style="stop-color:#a9d03f;stop-opacity:1" />
      <stop
         id="stop3120"
         offset="0.24677444"
         style="stop-color:#a1cc3e;stop-opacity:1" />
      <stop
         style="stop-color:#94c93d;stop-opacity:1"
         offset="0.45569649"
         id="stop3126" />
      <stop
         style="stop-color:#8dc540;stop-opacity:1"
         offset="0.5965941"
         id="stop3124" />
      <stop
         id="stop3118"
         offset="0.79657596"
         style="stop-color:#84bc41;stop-opacity:1" />
      <stop
         style="stop-color:#79b641;stop-opacity:1"
         offset="1"
         id="stop3114" />
    </linearGradient>
  </defs>
  <sodipodi:namedview
     id="base"
     pagecolor="#ffffff"
     bordercolor="#666666"
     borderopacity="1.0"
     inkscape:pageopacity="0.0"
     inkscape:pageshadow="2"
     inkscape:zoom="1.979899"
     inkscape:cx="197.65743"
     inkscape:cy="189.03617"
     inkscape:document-units="px"
     inkscape:current-layer="layer1"
     showgrid="false"
     fit-margin-left="0.5"
     fit-margin-bottom="0.5"
     fit-margin-top="0.5"
     fit-margin-right="0.5"
     inkscape:window-width="1511"
     inkscape:window-height="1036"
     inkscape:window-x="403"
     inkscape:window-y="-21"
     inkscape:window-maximized="0" />
  <metadata
     id="metadata3181">
    <rdf:RDF>
      <cc:Work
         rdf:about="">
        <dc:format>image/svg+xml</dc:format>
        <dc:type
           rdf:resource="http://purl.org/dc/dcmitype/StillImage" />
        <dc:title />
      </cc:Work>
    </rdf:RDF>
  </metadata>
  <g
     inkscape:label="Layer 1"
     inkscape:groupmode="layer"
     id="layer1"
     transform="translate(1427.1504,-891.92887)">
    <g
       transform="matrix(0.37570303,0,0,0.37570303,-1141.6023,902.42898)"
       id="g3128">
      <g
         transform="matrix(0.55912573,0,0,0.55912573,-580.3448,-883.96648)"
         id="g3099">
        <path
           sodipodi:nodetypes="cccccccccccc"
           inkscape:connector-curvature="0"
           id="path3103"
           d="m -32.232076,2470.9067 2.498611,24.4864 18.906153,8.7451 c 1.0883761,-28.9648 19.1004892,-46.5575 42.892814,-50.8051 75.396078,-16.3949 168.136898,-32.0655 276.179748,-32.0655 169.88111,0 316.42432,42.1228 435.0081,114.4364 17.50756,10.6399 23.24109,23.8903 25.73569,41.4769 l 65.88003,-42.6429 -16.65741,-65.6302 -491.72655,-131.9267 -459.74434,58.6341 z"
           style="fill:#7a9f3f;fill-opacity:1;stroke:#008080;stroke-width:0.25;stroke-linecap:butt;stroke-linejoin:miter;stroke-opacity:1" />
        <path
           sodipodi:nodetypes="cccccccccc"
           inkscape:connector-curvature="0"
           id="path3105"
           d="m -63.298134,2288.0084 22.320921,-8.4193 c 0.777447,-27.9786 15.866602,-51.2406 48.1398965,-60.0427 83.4998055,-24.5312 181.5646665,-39.8944 288.6728065,-39.8944 205.47725,0 393.79485,53.8294 531.37299,136.7856 22.01576,13.5192 30.47178,23.5036 34.62407,58.9095 l 101.18276,-55.6115 -424.97055,-198.8222 -710.48292,41.4606 z"
           style="fill:#82a73e;fill-opacity:1;stroke:#000080;stroke-width:0.25;stroke-linecap:butt;stroke-linejoin:miter;stroke-opacity:1" />
        <path
           sodipodi:nodetypes="ccccccccc"
           inkscape:connector-curvature="0"
           id="path3107"
           d="m -91.282571,2051.973 c -2.267185,-41.8019 19.668471,-71.8823 51.804525,-81.1216 105.642687,-30.6842 218.937916,-45.7246 352.803806,-45.7246 222.65858,0 446.35049,46.6038 609.99579,141.1341 32.16303,17.5033 41.45638,41.0164 43.20712,76.9391 l 101.55143,-67.0451 -304.82922,-257.715 -932.86219,99.8822 z"
           style="fill:#81a83e;fill-opacity:1;stroke:#000000;stroke-width:0.25;stroke-linecap:butt;stroke-linejoin:miter;stroke-opacity:1" />
        <path
           inkscape:connector-curvature="0"
           id="path3101"
           d="m 421.5,1533.375 c -408.962711,0 -740.5,331.5059 -740.5,740.4688 0,408.9627 331.537289,740.5 740.5,740.5 408.96271,0 740.5,-331.5373 740.5,-740.5 0,-408.9629 -331.53729,-740.4688 -740.5,-740.4688 z m -108.65625,386.4688 c 217.43517,0 446.20772,44.7272 613.3125,142.875 22.52392,12.7572 38.15625,31.9913 38.15625,67.25 0,40.3663 -32.44499,69.375 -69.84375,69.375 -15.07662,0 -24.02197,-3.6682 -38.15625,-11.4063 -134.03398,-80.3689 -342.03029,-124.625 -543.1875,-124.625 -100.41216,0 -202.39625,10.2115 -295.8125,35.5625 -10.759107,2.7077 -24.3563097,8.0938 -37.96875,8.0938 -39.50214,0 -69.8125,-31.2512 -69.8125,-70.75 0,-40.2419 24.940384,-62.8318 51.84375,-70.7813 105.55739,-31.0977 223.38382,-45.5937 351.46875,-45.5937 z M 297.75,2174.2812 c 193.82587,0 381.3323,48.274 528.75,136.5 24.71404,14.1715 33.8125,32.1677 33.8125,58.5313 0,32.0638 -25.52675,57.9687 -57.71875,57.9687 -16.06736,0 -26.17436,-6.4925 -37.09375,-12.8437 -120.45544,-71.4829 -287.40206,-118.9687 -470.21875,-118.9687 -93.76484,0 -174.69742,13.1295 -241.6875,30.9687 -14.43304,3.9722 -22.524473,8.25 -36.03125,8.25 -31.847449,0 -57.84375,-25.9521 -57.84375,-58.0625 0,-31.4884 15.272073,-53.1698 46.0625,-61.8438 83.240862,-22.8613 168.24466,-40.5 291.96875,-40.5 z m 10.15625,241.8126 c 162.03991,0 306.45491,37.1729 430.71875,111.6562 18.49491,10.7979 29.34375,21.832 29.34375,49.2188 0,26.6948 -21.70954,46.3124 -46.0625,46.3124 -11.97535,0 -20.14536,-4.1543 -31.34375,-10.9687 -107.32034,-64.9297 -241.13396,-99.0625 -383.15625,-99.0625 -79.23347,0 -158.97893,10.1616 -233.5625,25.6875 -12.127857,2.6292 -27.38982,7.3125 -36.5,7.3125 -28.1208138,0 -46.875,-22.3372 -46.875,-46.5312 0,-31.116 17.9529286,-46.6095 40.28125,-50.875 91.46135,-20.8435 182.54857,-32.75 277.15625,-32.75 z"
           style="fill:url(#radialGradient3116);fill-opacity:1;stroke:none" />
      </g>
    </g>
  </g>
</svg>
